<svg viewBox="0 0 600 400" xmlns="http://www.w3.org/2000/svg">
  <defs>
    <linearGradient id="pdfGradient" x1="0%" y1="0%" x2="100%" y2="0%">
      <stop offset="0%" stop-color="#FF6584" />
      <stop offset="100%" stop-color="#FF8B8B" />
    </linearGradient>
    <linearGradient id="summaryGradient" x1="0%" y1="0%" x2="100%" y2="0%">
      <stop offset="0%" stop-color="#6C63FF" />
      <stop offset="100%" stop-color="#8F8FFF" />
    </linearGradient>
  </defs>
  
  <!-- PDF Document -->
  <rect x="50" y="50" width="200" height="280" rx="10" fill="white" stroke="#ddd" stroke-width="2" />
  <rect x="50" y="50" width="200" height="40" rx="10" fill="url(#pdfGradient)" />
  <text x="150" y="75" font-family="Poppins, sans-serif" font-size="14" font-weight="bold" fill="white" text-anchor="middle">PDF Document</text>
  
  <!-- PDF Content -->
  <rect x="70" y="110" width="160" height="10" rx="2" fill="#e0e0e0" />
  <rect x="70" y="130" width="140" height="10" rx="2" fill="#e0e0e0" />
  <rect x="70" y="150" width="160" height="10" rx="2" fill="#e0e0e0" />
  <rect x="70" y="170" width="120" height="10" rx="2" fill="#e0e0e0" />
  <rect x="70" y="190" width="150" height="10" rx="2" fill="#e0e0e0" />
  <rect x="70" y="210" width="160" height="10" rx="2" fill="#e0e0e0" />
  <rect x="70" y="230" width="130" height="10" rx="2" fill="#e0e0e0" />
  <rect x="70" y="250" width="160" height="10" rx="2" fill="#e0e0e0" />
  <rect x="70" y="270" width="140" height="10" rx="2" fill="#e0e0e0" />
  <rect x="70" y="290" width="120" height="10" rx="2" fill="#e0e0e0" />
  
  <!-- Arrow -->
  <path d="M280,180 L350,180 M340,170 L350,180 L340,190" fill="none" stroke="#6C63FF" stroke-width="3" />
  
  <!-- Summary Document -->
  <rect x="380" y="80" width="180" height="220" rx="10" fill="white" stroke="#ddd" stroke-width="2" />
  <rect x="380" y="80" width="180" height="40" rx="10" fill="url(#summaryGradient)" />
  <text x="470" y="105" font-family="Poppins, sans-serif" font-size="14" font-weight="bold" fill="white" text-anchor="middle">Summary</text>
  
  <!-- Summary Content -->
  <rect x="400" y="140" width="140" height="10" rx="2" fill="#e0e0e0" />
  <rect x="400" y="160" width="120" height="10" rx="2" fill="#e0e0e0" />
  <rect x="400" y="180" width="140" height="10" rx="2" fill="#e0e0e0" />
  <rect x="400" y="200" width="100" height="10" rx="2" fill="#e0e0e0" />
  <rect x="400" y="220" width="130" height="10" rx="2" fill="#e0e0e0" />
  <rect x="400" y="240" width="110" height="10" rx="2" fill="#e0e0e0" />
  
  <!-- Sparkles -->
  <circle cx="470" cy="135" r="3" fill="#FFD166" />
  <circle cx="490" cy="155" r="2" fill="#FFD166" />
  <circle cx="450" cy="210" r="2.5" fill="#FFD166" />
</svg>
